<mxfile host="app.diagrams.net" agent="Mozilla/5.0 (Windows NT 10.0; Win64; x64) AppleWebKit/537.36 (KHTML, like Gecko) Chrome/134.0.0.0 Safari/537.36" version="26.1.1">
  <diagram name="PaginÄƒ-1" id="VoVR3vfplWfG6938_IKZ">
    <mxGraphModel dx="676" dy="685" grid="1" gridSize="10" guides="1" tooltips="1" connect="1" arrows="1" fold="1" page="1" pageScale="1" pageWidth="827" pageHeight="1169" math="0" shadow="0">
      <root>
        <mxCell id="0" />
        <mxCell id="1" parent="0" />
        <mxCell id="VDd-1NS_EoRpGYUwjBTu-1" value="Task Management View&lt;div&gt;Task Management Controller&lt;/div&gt;&lt;div&gt;Task Management Model&lt;/div&gt;&lt;div&gt;Add Complex Task View&lt;/div&gt;&lt;div&gt;Add Simple Task View&lt;/div&gt;" style="whiteSpace=wrap;html=1;aspect=fixed;" vertex="1" parent="1">
          <mxGeometry x="100" y="80" width="180" height="180" as="geometry" />
        </mxCell>
        <mxCell id="VDd-1NS_EoRpGYUwjBTu-2" value="&lt;h1 style=&quot;margin-top: 0px;&quot;&gt;Presentation&lt;/h1&gt;&lt;div&gt;&lt;br&gt;&lt;/div&gt;" style="text;html=1;whiteSpace=wrap;overflow=hidden;rounded=0;fontSize=12;" vertex="1" parent="1">
          <mxGeometry x="115" y="80" width="155" height="40" as="geometry" />
        </mxCell>
        <mxCell id="VDd-1NS_EoRpGYUwjBTu-4" value="Task Mangement&lt;div&gt;Utility&lt;/div&gt;" style="whiteSpace=wrap;html=1;aspect=fixed;" vertex="1" parent="1">
          <mxGeometry x="100" y="370" width="180" height="180" as="geometry" />
        </mxCell>
        <mxCell id="VDd-1NS_EoRpGYUwjBTu-5" value="&lt;h1 style=&quot;margin-top: 0px;&quot;&gt;&lt;font style=&quot;font-size: 13px;&quot;&gt;Business Logic&lt;/font&gt;&lt;/h1&gt;&lt;div&gt;&lt;br&gt;&lt;/div&gt;" style="text;html=1;whiteSpace=wrap;overflow=hidden;rounded=0;" vertex="1" parent="1">
          <mxGeometry x="140" y="380" width="100" height="40" as="geometry" />
        </mxCell>
        <mxCell id="VDd-1NS_EoRpGYUwjBTu-6" value="" style="endArrow=none;dashed=1;html=1;rounded=0;entryX=0.5;entryY=1;entryDx=0;entryDy=0;exitX=0.5;exitY=0;exitDx=0;exitDy=0;" edge="1" parent="1" source="VDd-1NS_EoRpGYUwjBTu-4" target="VDd-1NS_EoRpGYUwjBTu-1">
          <mxGeometry width="50" height="50" relative="1" as="geometry">
            <mxPoint x="90" y="390" as="sourcePoint" />
            <mxPoint x="140" y="340" as="targetPoint" />
          </mxGeometry>
        </mxCell>
        <mxCell id="VDd-1NS_EoRpGYUwjBTu-8" value="Data Manager" style="rounded=0;whiteSpace=wrap;html=1;" vertex="1" parent="1">
          <mxGeometry x="97" y="660" width="186" height="180" as="geometry" />
        </mxCell>
        <mxCell id="VDd-1NS_EoRpGYUwjBTu-10" value="&lt;h1 style=&quot;margin-top: 0px;&quot;&gt;&lt;font style=&quot;font-size: 12px;&quot;&gt;Data Acces&lt;/font&gt;&lt;/h1&gt;" style="text;html=1;whiteSpace=wrap;overflow=hidden;rounded=0;" vertex="1" parent="1">
          <mxGeometry x="155" y="660" width="70" height="40" as="geometry" />
        </mxCell>
        <mxCell id="VDd-1NS_EoRpGYUwjBTu-12" value="" style="endArrow=none;dashed=1;html=1;rounded=0;exitX=0.5;exitY=1;exitDx=0;exitDy=0;entryX=0.5;entryY=0;entryDx=0;entryDy=0;" edge="1" parent="1" source="VDd-1NS_EoRpGYUwjBTu-4" target="VDd-1NS_EoRpGYUwjBTu-8">
          <mxGeometry width="50" height="50" relative="1" as="geometry">
            <mxPoint x="290" y="570" as="sourcePoint" />
            <mxPoint x="340" y="520" as="targetPoint" />
          </mxGeometry>
        </mxCell>
        <mxCell id="VDd-1NS_EoRpGYUwjBTu-13" value="Task Management&lt;div&gt;Utility&lt;/div&gt;" style="rounded=0;whiteSpace=wrap;html=1;" vertex="1" parent="1">
          <mxGeometry x="440" y="370" width="180" height="180" as="geometry" />
        </mxCell>
        <mxCell id="VDd-1NS_EoRpGYUwjBTu-14" value="&lt;h1 style=&quot;margin-top: 0px;&quot;&gt;&lt;span style=&quot;font-size: 12px;&quot;&gt;Data Models&lt;/span&gt;&lt;/h1&gt;&lt;div&gt;&lt;span style=&quot;font-size: 12px;&quot;&gt;&lt;br&gt;&lt;/span&gt;&lt;/div&gt;" style="text;html=1;whiteSpace=wrap;overflow=hidden;rounded=0;" vertex="1" parent="1">
          <mxGeometry x="490" y="380" width="80" height="50" as="geometry" />
        </mxCell>
        <mxCell id="VDd-1NS_EoRpGYUwjBTu-16" value="" style="endArrow=none;dashed=1;html=1;rounded=0;exitX=1;exitY=0.5;exitDx=0;exitDy=0;entryX=0;entryY=0.5;entryDx=0;entryDy=0;" edge="1" parent="1" source="VDd-1NS_EoRpGYUwjBTu-4" target="VDd-1NS_EoRpGYUwjBTu-13">
          <mxGeometry width="50" height="50" relative="1" as="geometry">
            <mxPoint x="290" y="570" as="sourcePoint" />
            <mxPoint x="340" y="520" as="targetPoint" />
          </mxGeometry>
        </mxCell>
        <mxCell id="VDd-1NS_EoRpGYUwjBTu-17" value="" style="endArrow=none;dashed=1;html=1;rounded=0;exitX=1;exitY=0.5;exitDx=0;exitDy=0;entryX=0.5;entryY=1;entryDx=0;entryDy=0;" edge="1" parent="1" source="VDd-1NS_EoRpGYUwjBTu-8" target="VDd-1NS_EoRpGYUwjBTu-13">
          <mxGeometry width="50" height="50" relative="1" as="geometry">
            <mxPoint x="290" y="570" as="sourcePoint" />
            <mxPoint x="340" y="520" as="targetPoint" />
          </mxGeometry>
        </mxCell>
        <mxCell id="VDd-1NS_EoRpGYUwjBTu-18" value="" style="endArrow=none;dashed=1;html=1;rounded=0;exitX=1;exitY=0.5;exitDx=0;exitDy=0;entryX=0.5;entryY=0;entryDx=0;entryDy=0;" edge="1" parent="1" source="VDd-1NS_EoRpGYUwjBTu-1" target="VDd-1NS_EoRpGYUwjBTu-13">
          <mxGeometry width="50" height="50" relative="1" as="geometry">
            <mxPoint x="290" y="390" as="sourcePoint" />
            <mxPoint x="340" y="340" as="targetPoint" />
          </mxGeometry>
        </mxCell>
      </root>
    </mxGraphModel>
  </diagram>
</mxfile>
